<?xml version="1.0" encoding="UTF-8" standalone="no"?>
<svg
   xmlns="http://www.w3.org/2000/svg"
   version="1.1"
   id="svg2"
   width="512"
   height="512"
   viewBox="0 0 512 512">
  <defs id="defs6" />
  <g id="g10">
    <circle
       style="opacity:0.999;fill:#102b3f;fill-opacity:1;stroke-width:0"
       id="path837"
       cx="256"
       cy="256"
       r="256" />
    <g
       style="fill:#ffffff"
       id="g850"
       transform="matrix(7.5463975,0,0,7.6873184,-253.05692,77.891616)">
      <path
         d="m 81.521814,8.745715 c -0.4,-1.18 -1.52,-2.02 -2.84,-2.02 h -22 c -1.32,0 -2.42,0.84 -2.84,2.02 l -4.16,11.98 v 16 c 0,1.1 0.9,2 2,2 h 2 c 1.1,0 2,-0.9 2,-2 v -2 h 24 v 2 c 0,1.1 0.9,2 2,2 h 2 c 1.1,0 2,-0.9 2,-2 v -16 z m -24.84,19.98 c -1.66,0 -3,-1.34 -3,-3 0,-1.66 1.34,-3 3,-3 1.66,0 3,1.34 3,3 0,1.66 -1.34,3 -3,3 z m 22,0 c -1.66,0 -3,-1.34 -3,-3 0,-1.66 1.34,-3 3,-3 1.66,0 3,1.34 3,3 0,1.66 -1.34,3 -3,3 z m -25,-10 3,-9 h 22 l 3,9 z"
         id="path839"
         style="fill:#ffffff;stroke-width:2" />
    </g>
  </g>
</svg>
